<?xml version="1.0" encoding="utf-8"?>
<!-- Generator: Adobe Illustrator 19.0.0, SVG Export Plug-In . SVG Version: 6.00 Build 0)  -->
<svg version="1.1" id="Layer_2" xmlns="http://www.w3.org/2000/svg" xmlns:xlink="http://www.w3.org/1999/xlink" x="0px" y="0px"
	 viewBox="0 0 37.7 48" style="enable-background:new 0 0 37.7 48;" xml:space="preserve">
<style type="text/css">
	.st0{fill:#FFFFFF;}
</style>
<g id="XMLID_2_">
	<path id="XMLID_28_" class="st0" d="M37.7,34.2L37.1,34c-3.5-1.1-6-4.3-6.1-8c0-3.2,1.8-6.3,4.7-7.7l0.9-0.4L36.1,17
		c-0.1-0.1-2.1-3.5-6.4-4.6c-3.4-0.8-7.1,0-11.2,2.4c-1.7-1-7.5-3.9-12-0.8c-0.9,0.5-10.2,6.3-5,21.4c0.1,0.3,3.7,8.3,7.8,11.2
		c1.1,1,3.9,2.3,7.1,0c0.5-0.2,4.2-1.7,6.6-0.1c0.9,0.6,2.4,1.2,4,1.2c1.2,0,2.4-0.4,3.5-1.6c3.2-3,5.7-6.9,7.2-11l0.1-0.2
		L37.7,34.2z"/>
	<path id="XMLID_29_" class="st0" d="M28.1,1l-0.1-1l-1,0.1c-0.1,0-9.3,1.3-9.8,11.7l0,1l1-0.1C18.4,12.8,28.9,11.7,28.1,1z"/>
</g>
</svg>
