<?xml version="1.0" encoding="utf-8"?>
<!-- Generator: Adobe Illustrator 19.0.0, SVG Export Plug-In . SVG Version: 6.00 Build 0)  -->
<svg version="1.1" id="Layer_2" xmlns="http://www.w3.org/2000/svg" xmlns:xlink="http://www.w3.org/1999/xlink" x="0px" y="0px"
	 viewBox="0 0 39.7 41.9" style="enable-background:new 0 0 39.7 41.9;" xml:space="preserve">
<style type="text/css">
	.st0{fill:#FFFFFF;}
</style>
<g id="XMLID_1_">
	<path id="XMLID_196_" class="st0" d="M29,12.6L6.4,0.5C5.3-0.1,4-0.1,2.9,0.3l19.2,19.2L29,12.6z"/>
	<path id="XMLID_177_" class="st0" d="M37.4,17.1l-6.5-3.5l-7.3,7.3l7.3,7.3l6.5-3.5C40.5,23.1,40.5,18.7,37.4,17.1z"/>
	<path id="XMLID_174_" class="st0" d="M1.1,1.4C0.4,2.2,0,3.2,0,4.4v33.1c0,1.2,0.4,2.2,1.1,2.9l19.5-19.5L1.1,1.4z"/>
	<path id="XMLID_125_" class="st0" d="M2.9,41.6C4,42,5.3,42,6.4,41.4L29,29.3l-6.9-6.9L2.9,41.6z"/>
</g>
</svg>
