<?xml version="1.0" encoding="utf-8"?>
<!-- Generator: Adobe Illustrator 19.0.0, SVG Export Plug-In . SVG Version: 6.00 Build 0)  -->
<svg version="1.1" id="Layer_1" xmlns="http://www.w3.org/2000/svg" xmlns:xlink="http://www.w3.org/1999/xlink" x="0px" y="0px"
	 viewBox="-262.5 192.6 90.7 90.7" style="enable-background:new -262.5 192.6 90.7 90.7;" xml:space="preserve">
<style type="text/css">
	.st0{fill:#FFFFFF;}
</style>
<path class="st0" d="M-178.3,214.6L-178.3,214.6L-178.3,214.6c-8-13.2-22.4-22-38.9-22c-25,0-45.4,20.4-45.4,45.4
	c0,8.5,2.4,16.5,6.5,23.4v0.1h0c8,13.1,22.4,21.9,38.8,21.9c25,0,45.4-20.4,45.4-45.4C-171.8,229.4-174.2,221.4-178.3,214.6z
	 M-209.5,279.7c-2,0.4-4.1,0.6-6.1,0.7v-18.9h19.3C-199.3,269.8-203.9,276.4-209.5,279.7z M-237.9,261.4h19.3v18.9
	c-2.1-0.1-4.1-0.3-6.1-0.7C-230.4,276.4-234.9,269.8-237.9,261.4z M-224.8,196.3c2-0.4,4.1-0.6,6.1-0.7v18.9h-19.3
	C-234.9,206.2-230.4,199.6-224.8,196.3z M-196.3,214.6h-19.3v-18.9c2.1,0.1,4.1,0.3,6.1,0.7C-203.9,199.6-199.3,206.2-196.3,214.6z
	 M-195.4,217.6c1.7,5.7,2.7,12.2,2.8,18.9h-23.1v-18.9H-195.4z M-218.6,217.6v18.9h-23.1c0.1-6.8,1.1-13.2,2.8-18.9H-218.6z
	 M-244.7,236.5h-14.7c0.2-6.8,2.1-13.3,5.2-18.9h12.2C-243.6,223.4-244.6,229.8-244.7,236.5z M-244.7,239.5
	c0.1,6.7,1.1,13.1,2.7,18.9h-12.2c-3.1-5.7-5-12.1-5.2-18.9H-244.7z M-241.7,239.5h23.1v18.9h-20.3
	C-240.6,252.7-241.6,246.3-241.7,239.5z M-215.6,258.4v-18.9h23.1c-0.1,6.8-1.1,13.2-2.8,18.9H-215.6z M-189.6,239.5h14.7
	c-0.2,6.8-2.1,13.3-5.2,18.9h-12.2C-190.6,252.6-189.7,246.2-189.6,239.5z M-189.6,236.5c-0.1-6.7-1.1-13.1-2.7-18.9h12.2
	c3.1,5.7,5,12.1,5.2,18.9H-189.6z M-181.9,214.6h-11.3c-2.2-6.6-5.4-12.2-9.2-16.3C-194,201.4-186.8,207.2-181.9,214.6z
	 M-231.9,198.3c-3.8,4.1-7,9.7-9.2,16.3h-11.3C-247.5,207.2-240.3,201.4-231.9,198.3z M-252.4,261.4h11.3c2.2,6.6,5.4,12.2,9.2,16.3
	C-240.3,274.6-247.5,268.8-252.4,261.4z M-202.4,277.7c3.8-4.1,7-9.7,9.2-16.3h11.3C-186.8,268.8-194,274.6-202.4,277.7z"/>
</svg>
